<svg xmlns="http://www.w3.org/2000/svg" viewBox="0 0 1000 947.46"><defs><style>.cls-1{fill:#ea1d25;}</style></defs><g id="Capa_2" data-name="Capa 2"><g id="Capa_1-2" data-name="Capa 1"><path class="cls-1" d="M719.15,436.06c-2.28-34.25-11.41-68.49-29.68-98.17L534.23,66.21C522.81,45.66,513.68,22.83,509.12,0l-6.85,11.42c-38.82,66.2-38.82,150.68,0,216.88L627.83,445.19c38.81,66.21,38.81,150.68,0,216.89L621,673.49c-4.56-22.83-13.69-45.66-25.11-66.2L481.72,408.66,408.66,280.81c-11.41-20.54-20.55-43.38-25.11-66.21L376.7,226c-38.81,66.21-38.81,148.4,0,216.89h0L502.27,659.8c38.81,66.2,38.81,150.67,0,216.88l-6.85,11.42c-4.57-22.83-13.7-45.66-25.12-66.21L312.77,550.21c-20.54-36.53-29.67-77.62-29.67-118.72C116.43,474.87,0,568.47,0,675.78,0,826.46,223.74,947.46,500,947.46s500-121,500-271.68C1002.25,573,888.1,479.44,719.15,436.06Z"/></g></g></svg>